# xmcd CD database file
#
# Track frame offsets:
#	150
#	27280
#	56261
#	90212
#	114658
#	148352
#	195519
#	220596
#
# Disc length: 3751 seconds
#
# Revision: 0
# Processed by: cddbd v1.5.1PL0 Copyright (c) Steve Scherf et al.
# Submitted via: CDex 1.51
#
DISCID=660ea508
DTITLE=The Chance Trio - Marnee Birds
DYEAR=2004
DGENRE=Jazz
TTITLE0=Marnee Birds
TTITLE1=The Freshmaker
TTITLE2=43rd Street
TTITLE3=The Reverend and the Priest
TTITLE4=Requiem For Virtue
TTITLE5=We Love You, Lt. Costillo
TTITLE6=Sketch For Sara
TTITLE7=Freddie Diddley
EXTD=YEAR: 2004
EXTT0=
EXTT1=
EXTT2=
EXTT3=
EXTT4=
EXTT5=
EXTT6=
EXTT7=
PLAYORDER=
